<svg width="52" height="36" viewBox="0 0 52 36" fill="none" xmlns="http://www.w3.org/2000/svg">
<path d="M5.1928 0.145264C3.83326 0.145264 2.52941 0.678359 1.56807 1.62727C0.606726 2.57619 0.0666504 3.8632 0.0666504 5.20517V30.5047C0.0666504 31.8466 0.606726 33.1336 1.56807 34.0826C2.52941 35.0315 3.83326 35.5646 5.1928 35.5646H46.202C47.5616 35.5646 48.8654 35.0315 49.8268 34.0826C50.7881 33.1336 51.3282 31.8466 51.3282 30.5047V5.20517C51.3282 3.8632 50.7881 2.57619 49.8268 1.62727C48.8654 0.678359 47.5616 0.145264 46.202 0.145264H5.1928ZM5.1928 5.20517H35.9497V30.5047H5.1928V5.20517ZM43.639 5.20517C44.3187 5.20517 44.9707 5.47171 45.4513 5.94617C45.932 6.42063 46.202 7.06413 46.202 7.73512C46.202 8.4061 45.932 9.0496 45.4513 9.52406C44.9707 9.99852 44.3187 10.2651 43.639 10.2651C42.9592 10.2651 42.3073 9.99852 41.8266 9.52406C41.3459 9.0496 41.0759 8.4061 41.0759 7.73512C41.0759 7.06413 41.3459 6.42063 41.8266 5.94617C42.3073 5.47171 42.9592 5.20517 43.639 5.20517ZM10.319 10.2651V15.325H30.8236V10.2651H10.319ZM43.639 15.325C44.3187 15.325 44.9707 15.5915 45.4513 16.066C45.932 16.5404 46.202 17.1839 46.202 17.8549C46.202 18.5259 45.932 19.1694 45.4513 19.6439C44.9707 20.1183 44.3187 20.3849 43.639 20.3849C42.9592 20.3849 42.3073 20.1183 41.8266 19.6439C41.3459 19.1694 41.0759 18.5259 41.0759 17.8549C41.0759 17.1839 41.3459 16.5404 41.8266 16.066C42.3073 15.5915 42.9592 15.325 43.639 15.325Z" fill="white"/>
</svg>
