<svg width="44" height="44" viewBox="0 0 44 44" fill="none" xmlns="http://www.w3.org/2000/svg">
<path d="M39.4166 7.33325H35.4444V9.7777H39.1111V36.6666H4.88885V9.7777H8.55552V7.33325H4.58329C4.29758 7.33803 4.01561 7.39904 3.75349 7.51281C3.49136 7.62657 3.25421 7.79086 3.05559 7.9963C2.85697 8.20173 2.70076 8.44428 2.5959 8.71009C2.49103 8.9759 2.43955 9.25977 2.44441 9.54547V36.8988C2.43955 37.1845 2.49103 37.4684 2.5959 37.7342C2.70076 38 2.85697 38.2426 3.05559 38.448C3.25421 38.6534 3.49136 38.8177 3.75349 38.9315C4.01561 39.0452 4.29758 39.1063 4.58329 39.111H39.4166C39.7023 39.1063 39.9843 39.0452 40.2464 38.9315C40.5086 38.8177 40.7457 38.6534 40.9443 38.448C41.143 38.2426 41.2992 38 41.404 37.7342C41.5089 37.4684 41.5604 37.1845 41.5555 36.8988V9.54547C41.5604 9.25977 41.5089 8.9759 41.404 8.71009C41.2992 8.44428 41.143 8.20173 40.9443 7.9963C40.7457 7.79086 40.5086 7.62657 40.2464 7.51281C39.9843 7.39904 39.7023 7.33803 39.4166 7.33325V7.33325Z" fill="#FFA45B"/>
<path d="M9.77783 17.1111H12.2223V19.5555H9.77783V17.1111Z" fill="#FFA45B"/>
<path d="M17.1111 17.1111H19.5555V19.5555H17.1111V17.1111Z" fill="#FFA45B"/>
<path d="M24.4443 17.1111H26.8888V19.5555H24.4443V17.1111Z" fill="#FFA45B"/>
<path d="M31.7778 17.1111H34.2223V19.5555H31.7778V17.1111Z" fill="#FFA45B"/>
<path d="M9.77783 23.2222H12.2223V25.6666H9.77783V23.2222Z" fill="#FFA45B"/>
<path d="M17.1111 23.2222H19.5555V25.6666H17.1111V23.2222Z" fill="#FFA45B"/>
<path d="M24.4443 23.2222H26.8888V25.6666H24.4443V23.2222Z" fill="#FFA45B"/>
<path d="M31.7778 23.2222H34.2223V25.6666H31.7778V23.2222Z" fill="#FFA45B"/>
<path d="M9.77783 29.3333H12.2223V31.7777H9.77783V29.3333Z" fill="#FFA45B"/>
<path d="M17.1111 29.3333H19.5555V31.7777H17.1111V29.3333Z" fill="#FFA45B"/>
<path d="M24.4443 29.3333H26.8888V31.7777H24.4443V29.3333Z" fill="#FFA45B"/>
<path d="M31.7778 29.3333H34.2223V31.7777H31.7778V29.3333Z" fill="#FFA45B"/>
<path d="M12.2222 12.2221C12.5464 12.2221 12.8573 12.0933 13.0865 11.8641C13.3157 11.6349 13.4444 11.324 13.4444 10.9999V3.66656C13.4444 3.3424 13.3157 3.03153 13.0865 2.80232C12.8573 2.57311 12.5464 2.44434 12.2222 2.44434C11.8981 2.44434 11.5872 2.57311 11.358 2.80232C11.1288 3.03153 11 3.3424 11 3.66656V10.9999C11 11.324 11.1288 11.6349 11.358 11.8641C11.5872 12.0933 11.8981 12.2221 12.2222 12.2221Z" fill="#FFA45B"/>
<path d="M31.7779 12.2221C32.102 12.2221 32.4129 12.0933 32.6421 11.8641C32.8713 11.6349 33.0001 11.324 33.0001 10.9999V3.66656C33.0001 3.3424 32.8713 3.03153 32.6421 2.80232C32.4129 2.57311 32.102 2.44434 31.7779 2.44434C31.4537 2.44434 31.1429 2.57311 30.9136 2.80232C30.6844 3.03153 30.5557 3.3424 30.5557 3.66656V10.9999C30.5557 11.324 30.6844 11.6349 30.9136 11.8641C31.1429 12.0933 31.4537 12.2221 31.7779 12.2221Z" fill="#FFA45B"/>
<path d="M15.8889 7.33325H28.1111V9.7777H15.8889V7.33325Z" fill="#FFA45B"/>
</svg>
