<svg width="44" height="44" viewBox="0 0 44 44" fill="none" xmlns="http://www.w3.org/2000/svg">
<path d="M34.2222 36.6666H7.33336V9.7777H23.4911L25.9356 7.33325H7.33336C6.68505 7.33325 6.0633 7.59079 5.60488 8.04921C5.14645 8.50764 4.88892 9.12939 4.88892 9.7777V36.6666C4.88892 37.3149 5.14645 37.9366 5.60488 38.3951C6.0633 38.8535 6.68505 39.111 7.33336 39.111H34.2222C34.8706 39.111 35.4923 38.8535 35.9507 38.3951C36.4092 37.9366 36.6667 37.3149 36.6667 36.6666V18.3333L34.2222 20.7777V36.6666Z" fill="#FFA45B"/>
<path d="M40.981 7.13782L36.8621 3.01893C36.6793 2.83563 36.4622 2.69021 36.2231 2.59098C35.984 2.49175 35.7277 2.44067 35.4688 2.44067C35.2099 2.44067 34.9536 2.49175 34.7145 2.59098C34.4754 2.69021 34.2582 2.83563 34.0754 3.01893L17.3188 19.8734L15.9621 25.7523C15.9043 26.0372 15.9104 26.3315 15.9799 26.6138C16.0494 26.8962 16.1806 27.1596 16.3641 27.3852C16.5476 27.6107 16.7788 27.7928 17.0411 27.9184C17.3034 28.0439 17.5902 28.1097 17.881 28.1112C18.0313 28.1277 18.1829 28.1277 18.3332 28.1112L24.261 26.8034L40.981 9.92449C41.1643 9.74169 41.3097 9.52453 41.409 9.28543C41.5082 9.04634 41.5593 8.79002 41.5593 8.53115C41.5593 8.27229 41.5082 8.01596 41.409 7.77687C41.3097 7.53778 41.1643 7.32061 40.981 7.13782V7.13782ZM22.9899 24.5423L18.5166 25.5323L19.5554 21.0956L32.1688 8.39671L35.6155 11.8434L22.9899 24.5423ZM36.9966 10.4623L33.5499 7.0156L35.4443 5.08449L38.9155 8.5556L36.9966 10.4623Z" fill="#FFA45B"/>
</svg>
