<svg width="219" height="144" viewBox="0 0 219 144" fill="none" xmlns="http://www.w3.org/2000/svg">
<path d="M20.9044 46.6866C24.3644 112.427 19.4627 138.954 16.5793 144C7.35257 139.387 8.4098 77.2021 10.0918 46.6866C2.59502 43.8032 0.24028 38.2768 0 35.8739V1.99445C2.30669 -0.888907 4.8056 0.793053 5.76672 1.99445V35.8739C6.34339 37.604 8.16952 36.5948 8.65008 35.8739V1.99445C10.9568 -0.312235 13.4557 1.03333 14.4168 1.99445V35.8739C14.9935 38.1806 16.5793 36.8351 17.3002 35.8739V1.99445C19.0302 -0.312235 21.3849 1.03333 22.346 1.99445V35.8739C24.0761 38.7573 24.9891 37.0753 25.2294 35.8739V1.27364C26.9594 -1.03305 30.2753 0.312522 31.717 1.27364V35.8739C30.2753 38.9976 26.0944 45.5332 20.9044 46.6866Z" fill="#FFA45B"/>
<path d="M218.534 0V140.564C211.613 146.907 207.481 142.246 206.279 139.122L209.163 83.6175H212.046L213.488 80.7341H202.675C202.675 35.3212 209.883 11.7737 218.534 0Z" fill="#FFA45B"/>
<circle cx="112.642" cy="71.6423" r="70.6423" fill="#FFA45B"/>
<path d="M76.8046 32H73V35.8046H76.8046V32Z" fill="white"/>
<path d="M80.6093 32H76.8046V35.8046H80.6093V32Z" fill="white"/>
<path d="M84.4139 32H80.6093V35.8046H84.4139V32Z" fill="white"/>
<path d="M88.2186 32H84.4139V35.8046H88.2186V32Z" fill="white"/>
<path d="M92.0232 32H88.2186V35.8046H92.0232V32Z" fill="white"/>
<path d="M95.8278 32H92.0232V35.8046H95.8278V32Z" fill="white"/>
<path d="M99.6325 32H95.8278V35.8046H99.6325V32Z" fill="white"/>
<path d="M107.242 32H103.437V35.8046H107.242V32Z" fill="white"/>
<path d="M111.046 32H107.242V35.8046H111.046V32Z" fill="white"/>
<path d="M130.07 32H126.265V35.8046H130.07V32Z" fill="white"/>
<path d="M133.874 32H130.07V35.8046H133.874V32Z" fill="white"/>
<path d="M137.679 32H133.874V35.8046H137.679V32Z" fill="white"/>
<path d="M141.484 32H137.679V35.8046H141.484V32Z" fill="white"/>
<path d="M145.288 32H141.484V35.8046H145.288V32Z" fill="white"/>
<path d="M149.093 32H145.288V35.8046H149.093V32Z" fill="white"/>
<path d="M152.897 32H149.093V35.8046H152.897V32Z" fill="white"/>
<path d="M76.8046 35.8046H73V39.6093H76.8046V35.8046Z" fill="white"/>
<path d="M99.6325 35.8046H95.8278V39.6093H99.6325V35.8046Z" fill="white"/>
<path d="M111.046 35.8046H107.242L107.242 39.6093H111.046V35.8046Z" fill="white"/>
<path d="M114.851 35.8046H111.046V39.6093H114.851V35.8046Z" fill="white"/>
<path d="M122.46 35.8046H118.656V39.6093H122.46V35.8046Z" fill="white"/>
<path d="M130.07 35.8046H126.265V39.6093H130.07V35.8046Z" fill="white"/>
<path d="M152.897 35.8046H149.093V39.6093H152.897V35.8046Z" fill="white"/>
<path d="M76.8046 39.6093H73V43.4139H76.8046V39.6093Z" fill="white"/>
<path d="M84.4139 39.6093H80.6093V43.4139H84.4139V39.6093Z" fill="white"/>
<path d="M88.2186 39.6093H84.4139V43.4139H88.2186V39.6093Z" fill="white"/>
<path d="M92.0232 39.6093H88.2186V43.4139H92.0232V39.6093Z" fill="white"/>
<path d="M99.6325 39.6093H95.8278V43.4139H99.6325V39.6093Z" fill="white"/>
<path d="M107.242 39.6093H103.437V43.4139H107.242L107.242 39.6093Z" fill="white"/>
<path d="M111.046 39.6093H107.242L107.242 43.4139H111.046V39.6093Z" fill="white"/>
<path d="M114.851 39.6093H111.046V43.4139H114.851V39.6093Z" fill="white"/>
<path d="M130.07 39.6093H126.265V43.4139H130.07V39.6093Z" fill="white"/>
<path d="M137.679 39.6093H133.874V43.4139H137.679V39.6093Z" fill="white"/>
<path d="M141.484 39.6093H137.679V43.4139H141.484V39.6093Z" fill="white"/>
<path d="M145.288 39.6093H141.484V43.4139H145.288V39.6093Z" fill="white"/>
<path d="M152.897 39.6093H149.093V43.4139H152.897V39.6093Z" fill="white"/>
<path d="M76.8046 43.4139H73V47.2186H76.8046V43.4139Z" fill="white"/>
<path d="M84.4139 43.4139H80.6093V47.2186H84.4139V43.4139Z" fill="white"/>
<path d="M88.2186 43.4139H84.4139V47.2186H88.2186V43.4139Z" fill="white"/>
<path d="M92.0232 43.4139H88.2186V47.2186H92.0232V43.4139Z" fill="white"/>
<path d="M99.6325 43.4139H95.8278V47.2186H99.6325V43.4139Z" fill="white"/>
<path d="M107.242 43.4139H103.437V47.2186H107.242V43.4139Z" fill="white"/>
<path d="M122.46 43.4139H118.656V47.2186H122.46V43.4139Z" fill="white"/>
<path d="M130.07 43.4139H126.265V47.2186H130.07V43.4139Z" fill="white"/>
<path d="M137.679 43.4139H133.874V47.2186H137.679V43.4139Z" fill="white"/>
<path d="M141.484 43.4139H137.679V47.2186H141.484V43.4139Z" fill="white"/>
<path d="M145.288 43.4139H141.484V47.2186H145.288V43.4139Z" fill="white"/>
<path d="M152.897 43.4139H149.093V47.2186H152.897V43.4139Z" fill="white"/>
<path d="M76.8046 47.2186H73V51.0232H76.8046V47.2186Z" fill="white"/>
<path d="M84.4139 47.2186H80.6093V51.0232H84.4139V47.2186Z" fill="white"/>
<path d="M88.2186 47.2186H84.4139V51.0232H88.2186V47.2186Z" fill="white"/>
<path d="M92.0232 47.2186H88.2186V51.0232H92.0232V47.2186Z" fill="white"/>
<path d="M99.6325 47.2186H95.8278V51.0232H99.6325V47.2186Z" fill="white"/>
<path d="M107.242 47.2186H103.437V51.0232H107.242V47.2186Z" fill="white"/>
<path d="M111.046 47.2186H107.242V51.0232H111.046V47.2186Z" fill="white"/>
<path d="M114.851 47.2186H111.046V51.0232H114.851V47.2186Z" fill="white"/>
<path d="M118.656 47.2186H114.851V51.0232H118.656V47.2186Z" fill="white"/>
<path d="M130.07 47.2186H126.265V51.0232H130.07V47.2186Z" fill="white"/>
<path d="M137.679 47.2186H133.874V51.0232H137.679V47.2186Z" fill="white"/>
<path d="M141.484 47.2186H137.679V51.0232H141.484V47.2186Z" fill="white"/>
<path d="M145.288 47.2186H141.484V51.0232H145.288V47.2186Z" fill="white"/>
<path d="M152.897 47.2186H149.093V51.0232H152.897V47.2186Z" fill="white"/>
<path d="M76.8046 51.0232H73V54.8278H76.8046V51.0232Z" fill="white"/>
<path d="M99.6325 51.0232H95.8278V54.8278H99.6325V51.0232Z" fill="white"/>
<path d="M107.242 51.0232H103.437V54.8278H107.242V51.0232Z" fill="white"/>
<path d="M118.656 51.0232H114.851L114.851 54.8278H118.656V51.0232Z" fill="white"/>
<path d="M130.07 51.0232H126.265V54.8278H130.07V51.0232Z" fill="white"/>
<path d="M152.897 51.0232H149.093V54.8278H152.897V51.0232Z" fill="white"/>
<path d="M76.8046 54.8278H73V58.6325H76.8046V54.8278Z" fill="white"/>
<path d="M80.6093 54.8278H76.8046V58.6325H80.6093V54.8278Z" fill="white"/>
<path d="M84.4139 54.8278H80.6093V58.6325H84.4139V54.8278Z" fill="white"/>
<path d="M88.2186 54.8278H84.4139V58.6325H88.2186V54.8278Z" fill="white"/>
<path d="M92.0232 54.8278H88.2186V58.6325H92.0232V54.8278Z" fill="white"/>
<path d="M95.8278 54.8278H92.0232V58.6325H95.8278V54.8278Z" fill="white"/>
<path d="M99.6325 54.8278H95.8278V58.6325H99.6325V54.8278Z" fill="white"/>
<path d="M107.242 54.8278H103.437V58.6325H107.242V54.8278Z" fill="white"/>
<path d="M114.851 54.8278H111.046V58.6325H114.851L114.851 54.8278Z" fill="white"/>
<path d="M122.46 54.8278H118.656V58.6325H122.46V54.8278Z" fill="white"/>
<path d="M130.07 54.8278H126.265V58.6325H130.07V54.8278Z" fill="white"/>
<path d="M133.874 54.8278H130.07V58.6325H133.874V54.8278Z" fill="white"/>
<path d="M137.679 54.8278H133.874V58.6325H137.679V54.8278Z" fill="white"/>
<path d="M141.484 54.8278H137.679V58.6325H141.484V54.8278Z" fill="white"/>
<path d="M145.288 54.8278H141.484V58.6325H145.288V54.8278Z" fill="white"/>
<path d="M149.093 54.8278H145.288V58.6325H149.093V54.8278Z" fill="white"/>
<path d="M152.897 54.8278H149.093V58.6325H152.897V54.8278Z" fill="white"/>
<path d="M111.046 58.6325H107.242L107.242 62.4371H111.046L111.046 58.6325Z" fill="white"/>
<path d="M118.656 58.6325H114.851L114.851 62.4371H118.656V58.6325Z" fill="white"/>
<path d="M122.46 58.6325H118.656V62.4371H122.46V58.6325Z" fill="white"/>
<path d="M84.4139 62.4371H80.6093V66.2418H84.4139V62.4371Z" fill="white"/>
<path d="M88.2186 62.4371H84.4139V66.2418H88.2186V62.4371Z" fill="white"/>
<path d="M92.0232 62.4371H88.2186V66.2418H92.0232V62.4371Z" fill="white"/>
<path d="M95.8278 62.4371H92.0232V66.2418H95.8278V62.4371Z" fill="white"/>
<path d="M99.6325 62.4371H95.8278V66.2418H99.6325V62.4371Z" fill="white"/>
<path d="M103.437 62.4371H99.6325V66.2418H103.437V62.4371Z" fill="white"/>
<path d="M122.46 62.4371H118.656V66.2418H122.46V62.4371Z" fill="white"/>
<path d="M126.265 62.4371L122.46 62.4371V66.2418H126.265V62.4371Z" fill="white"/>
<path d="M133.874 62.4371H130.07V66.2418H133.874V62.4371Z" fill="white"/>
<path d="M137.679 62.4371H133.874V66.2418H137.679V62.4371Z" fill="white"/>
<path d="M141.484 62.4371H137.679V66.2418H141.484V62.4371Z" fill="white"/>
<path d="M145.288 62.4371H141.484V66.2418H145.288V62.4371Z" fill="white"/>
<path d="M152.897 62.4371H149.093V66.2418H152.897V62.4371Z" fill="white"/>
<path d="M80.6093 66.2418L76.8046 66.2418V70.0464H80.6093V66.2418Z" fill="white"/>
<path d="M122.46 66.2418H118.656V70.0464H122.46V66.2418Z" fill="white"/>
<path d="M126.265 66.2418H122.46V70.0464H126.265V66.2418Z" fill="white"/>
<path d="M130.07 66.2418H126.265V70.0464H130.07V66.2418Z" fill="white"/>
<path d="M137.679 66.2418H133.874V70.0464H137.679V66.2418Z" fill="white"/>
<path d="M141.484 66.2418H137.679V70.0464H141.484V66.2418Z" fill="white"/>
<path d="M149.093 66.2418H145.288V70.0464H149.093V66.2418Z" fill="white"/>
<path d="M84.4139 70.0464L80.6093 70.0464V73.8511H84.4139V70.0464Z" fill="white"/>
<path d="M88.2186 70.0464H84.4139V73.8511H88.2186V70.0464Z" fill="white"/>
<path d="M92.0232 70.0464H88.2186V73.8511H92.0232V70.0464Z" fill="white"/>
<path d="M99.6325 70.0464H95.8278V73.8511H99.6325V70.0464Z" fill="white"/>
<path d="M103.437 70.0464H99.6325V73.8511H103.437V70.0464Z" fill="white"/>
<path d="M107.242 70.0464H103.437V73.8511H107.242V70.0464Z" fill="white"/>
<path d="M111.046 70.0464H107.242V73.8511H111.046V70.0464Z" fill="white"/>
<path d="M126.265 70.0464H122.46V73.8511H126.265V70.0464Z" fill="white"/>
<path d="M133.874 70.0464H130.07V73.8511H133.874V70.0464Z" fill="white"/>
<path d="M80.6093 73.8511L76.8046 73.8511V77.6557H80.6093V73.8511Z" fill="white"/>
<path d="M84.4139 73.8511H80.6093V77.6557H84.4139V73.8511Z" fill="white"/>
<path d="M95.8278 73.8511H92.0232V77.6557H95.8278V73.8511Z" fill="white"/>
<path d="M107.242 73.8511H103.437L103.437 77.6557H107.242V73.8511Z" fill="white"/>
<path d="M111.046 73.8511H107.242V77.6557H111.046V73.8511Z" fill="white"/>
<path d="M118.656 73.8511H114.851V77.6557H118.656V73.8511Z" fill="white"/>
<path d="M130.07 73.8511H126.265V77.6557H130.07V73.8511Z" fill="white"/>
<path d="M137.679 73.8511L133.874 73.8511V77.6557H137.679V73.8511Z" fill="white"/>
<path d="M141.484 73.8511H137.679V77.6557H141.484V73.8511Z" fill="white"/>
<path d="M149.093 73.8511H145.288V77.6557H149.093V73.8511Z" fill="white"/>
<path d="M80.6093 77.6557H76.8046V81.4603H80.6093V77.6557Z" fill="white"/>
<path d="M84.4139 77.6557H80.6093V81.4603H84.4139V77.6557Z" fill="white"/>
<path d="M88.2186 77.6557H84.4139V81.4603H88.2186V77.6557Z" fill="white"/>
<path d="M92.0232 77.6557H88.2186V81.4603H92.0232V77.6557Z" fill="white"/>
<path d="M99.6325 77.6557H95.8278V81.4603H99.6325V77.6557Z" fill="white"/>
<path d="M111.046 77.6557H107.242L107.242 81.4603H111.046V77.6557Z" fill="white"/>
<path d="M114.851 77.6557H111.046V81.4603H114.851L114.851 77.6557Z" fill="white"/>
<path d="M118.656 77.6557H114.851L114.851 81.4603H118.656V77.6557Z" fill="white"/>
<path d="M122.46 77.6557H118.656V81.4603H122.46V77.6557Z" fill="white"/>
<path d="M126.265 77.6557H122.46V81.4603H126.265V77.6557Z" fill="white"/>
<path d="M141.484 77.6557H137.679V81.4603H141.484V77.6557Z" fill="white"/>
<path d="M145.288 77.6557H141.484V81.4603H145.288V77.6557Z" fill="white"/>
<path d="M149.093 77.6557H145.288V81.4603H149.093V77.6557Z" fill="white"/>
<path d="M152.897 77.6557H149.093V81.4603H152.897V77.6557Z" fill="white"/>
<path d="M111.046 81.4603H107.242V85.265H111.046V81.4603Z" fill="white"/>
<path d="M118.656 81.4603H114.851L114.851 85.265H118.656V81.4603Z" fill="white"/>
<path d="M130.07 81.4603H126.265V85.265H130.07V81.4603Z" fill="white"/>
<path d="M137.679 81.4603H133.874V85.265H137.679V81.4603Z" fill="white"/>
<path d="M141.484 81.4603H137.679V85.265H141.484V81.4603Z" fill="white"/>
<path d="M149.093 81.4603H145.288V85.265H149.093V81.4603Z" fill="white"/>
<path d="M76.8046 85.265H73V89.0696H76.8046V85.265Z" fill="white"/>
<path d="M80.6093 85.265H76.8046V89.0696H80.6093V85.265Z" fill="white"/>
<path d="M84.4139 85.265H80.6093V89.0696H84.4139V85.265Z" fill="white"/>
<path d="M88.2186 85.265H84.4139V89.0696H88.2186V85.265Z" fill="white"/>
<path d="M92.0232 85.265H88.2186V89.0696H92.0232V85.265Z" fill="white"/>
<path d="M95.8278 85.265H92.0232V89.0696H95.8278V85.265Z" fill="white"/>
<path d="M99.6325 85.265H95.8278V89.0696H99.6325V85.265Z" fill="white"/>
<path d="M107.242 85.265H103.437V89.0696H107.242L107.242 85.265Z" fill="white"/>
<path d="M111.046 85.265H107.242L107.242 89.0696H111.046V85.265Z" fill="white"/>
<path d="M114.851 85.265H111.046V89.0696H114.851L114.851 85.265Z" fill="white"/>
<path d="M118.656 85.265H114.851L114.851 89.0696H118.656V85.265Z" fill="white"/>
<path d="M141.484 85.265H137.679V89.0696H141.484V85.265Z" fill="white"/>
<path d="M145.288 85.265H141.484V89.0696H145.288V85.265Z" fill="white"/>
<path d="M149.093 85.265H145.288V89.0696H149.093V85.265Z" fill="white"/>
<path d="M76.8046 89.0696H73V92.8743H76.8046V89.0696Z" fill="white"/>
<path d="M99.6325 89.0696H95.8278V92.8743H99.6325V89.0696Z" fill="white"/>
<path d="M107.242 89.0696H103.437V92.8743H107.242V89.0696Z" fill="white"/>
<path d="M114.851 89.0696H111.046L111.046 92.8743H114.851V89.0696Z" fill="white"/>
<path d="M122.46 89.0696H118.656V92.8743H122.46V89.0696Z" fill="white"/>
<path d="M126.265 89.0696H122.46V92.8743H126.265V89.0696Z" fill="white"/>
<path d="M133.874 89.0696H130.07V92.8743H133.874V89.0696Z" fill="white"/>
<path d="M141.484 89.0696H137.679V92.8743H141.484V89.0696Z" fill="white"/>
<path d="M145.288 89.0696H141.484V92.8743H145.288V89.0696Z" fill="white"/>
<path d="M76.8046 92.8743H73V96.6789H76.8046V92.8743Z" fill="white"/>
<path d="M84.4139 92.8743H80.6093V96.6789H84.4139V92.8743Z" fill="white"/>
<path d="M88.2186 92.8743H84.4139V96.6789H88.2186V92.8743Z" fill="white"/>
<path d="M92.0232 92.8743H88.2186V96.6789H92.0232V92.8743Z" fill="white"/>
<path d="M99.6325 92.8743H95.8278V96.6789H99.6325V92.8743Z" fill="white"/>
<path d="M107.242 92.8743H103.437V96.6789H107.242V92.8743Z" fill="white"/>
<path d="M130.07 92.8743H126.265V96.6789H130.07V92.8743Z" fill="white"/>
<path d="M133.874 92.8743H130.07V96.6789H133.874V92.8743Z" fill="white"/>
<path d="M137.679 92.8743H133.874V96.6789H137.679V92.8743Z" fill="white"/>
<path d="M149.093 92.8743H145.288V96.6789H149.093V92.8743Z" fill="white"/>
<path d="M152.897 92.8743H149.093V96.6789H152.897V92.8743Z" fill="white"/>
<path d="M76.8046 96.6789H73V100.484H76.8046V96.6789Z" fill="white"/>
<path d="M84.4139 96.6789H80.6093V100.484H84.4139V96.6789Z" fill="white"/>
<path d="M88.2186 96.6789H84.4139V100.484H88.2186V96.6789Z" fill="white"/>
<path d="M92.0232 96.6789H88.2186V100.484H92.0232V96.6789Z" fill="white"/>
<path d="M99.6325 96.6789H95.8278V100.484H99.6325V96.6789Z" fill="white"/>
<path d="M107.242 96.6789H103.437V100.484H107.242V96.6789Z" fill="white"/>
<path d="M111.046 96.6789H107.242V100.484H111.046V96.6789Z" fill="white"/>
<path d="M114.851 96.6789H111.046V100.484H114.851V96.6789Z" fill="white"/>
<path d="M118.656 96.6789H114.851V100.484H118.656V96.6789Z" fill="white"/>
<path d="M126.265 96.6789H122.46V100.484H126.265V96.6789Z" fill="white"/>
<path d="M133.874 96.6789H130.07V100.484H133.874V96.6789Z" fill="white"/>
<path d="M141.484 96.6789H137.679V100.484H141.484V96.6789Z" fill="white"/>
<path d="M149.093 96.6789H145.288V100.484H149.093V96.6789Z" fill="white"/>
<path d="M76.8046 100.484H73V104.288H76.8046V100.484Z" fill="white"/>
<path d="M84.4139 100.484H80.6093V104.288H84.4139V100.484Z" fill="white"/>
<path d="M88.2186 100.484H84.4139V104.288H88.2186V100.484Z" fill="white"/>
<path d="M92.0232 100.484H88.2186V104.288H92.0232V100.484Z" fill="white"/>
<path d="M99.6325 100.484H95.8278V104.288H99.6325V100.484Z" fill="white"/>
<path d="M107.242 100.484H103.437V104.288H107.242V100.484Z" fill="white"/>
<path d="M111.046 100.484H107.242V104.288H111.046V100.484Z" fill="white"/>
<path d="M114.851 100.484H111.046V104.288H114.851V100.484Z" fill="white"/>
<path d="M118.656 100.484H114.851V104.288H118.656V100.484Z" fill="white"/>
<path d="M130.07 100.484H126.265V104.288H130.07V100.484Z" fill="white"/>
<path d="M133.874 100.484H130.07V104.288H133.874V100.484Z" fill="white"/>
<path d="M145.288 100.484H141.484V104.288H145.288V100.484Z" fill="white"/>
<path d="M149.093 100.484H145.288V104.288H149.093V100.484Z" fill="white"/>
<path d="M76.8046 104.288H73V108.093H76.8046V104.288Z" fill="white"/>
<path d="M99.6325 104.288H95.8278V108.093H99.6325V104.288Z" fill="white"/>
<path d="M114.851 104.288H111.046L111.046 108.093H114.851V104.288Z" fill="white"/>
<path d="M130.07 104.288H126.265V108.093H130.07V104.288Z" fill="white"/>
<path d="M133.874 104.288H130.07V108.093H133.874V104.288Z" fill="white"/>
<path d="M137.679 104.288H133.874V108.093H137.679V104.288Z" fill="white"/>
<path d="M152.897 104.288H149.093V108.093H152.897V104.288Z" fill="white"/>
<path d="M76.8046 108.093H73V111.897H76.8046V108.093Z" fill="white"/>
<path d="M80.6093 108.093H76.8046V111.897H80.6093V108.093Z" fill="white"/>
<path d="M84.4139 108.093H80.6093V111.897H84.4139V108.093Z" fill="white"/>
<path d="M88.2186 108.093H84.4139V111.897H88.2186V108.093Z" fill="white"/>
<path d="M92.0232 108.093H88.2186V111.897H92.0232V108.093Z" fill="white"/>
<path d="M95.8278 108.093H92.0232V111.897H95.8278V108.093Z" fill="white"/>
<path d="M99.6325 108.093H95.8278V111.897H99.6325V108.093Z" fill="white"/>
<path d="M111.046 108.093H107.242V111.897H111.046L111.046 108.093Z" fill="white"/>
<path d="M122.46 108.093H118.656V111.897H122.46V108.093Z" fill="white"/>
<path d="M126.265 108.093H122.46V111.897H126.265V108.093Z" fill="white"/>
</svg>
