<svg width="39" height="38" viewBox="0 0 39 38" fill="none" xmlns="http://www.w3.org/2000/svg">
<g clip-path="url(#clip0_27_888)">
<path d="M4.93463 4.75H9.68463V9.5H4.93463V4.75Z" fill="white"/>
<path d="M14.4346 0V14.25H0.184631V0H14.4346ZM12.0596 2.375H2.55963V11.875H12.0596V2.375ZM9.68463 28.5H4.93463V33.25H9.68463V28.5Z" fill="white"/>
<path d="M14.4346 23.75V38H0.184631V23.75H14.4346ZM2.55963 26.125V35.625H12.0596V26.125H2.55963ZM28.6846 4.75H33.4346V9.5H28.6846V4.75Z" fill="white"/>
<path d="M23.9346 0V14.25H38.1846V0H23.9346ZM35.8096 2.375V11.875H26.3096V2.375H35.8096ZM19.1846 2.375V0H21.5596V4.75H19.1846V9.5H16.8096V2.375H19.1846ZM19.1846 14.25V9.5H21.5596V14.25H19.1846ZM14.4346 19V16.625H16.8096V14.25H19.1846V19H21.5596V16.625H33.4346V19H23.9346V21.375H16.8096V19H14.4346ZM14.4346 19V21.375H4.93463V19H2.55963V21.375H0.184631V16.625H7.30963V19H14.4346ZM38.1846 21.375H35.8096V16.625H38.1846V21.375ZM35.8096 21.375H33.4346V26.125H38.1846V23.75H35.8096V21.375ZM26.3096 21.375H31.0596V23.75H28.6846V26.125H26.3096V21.375ZM31.0596 28.5V26.125H28.6846V28.5H26.3096V30.875H21.5596V33.25H28.6846V28.5H31.0596ZM31.0596 28.5H38.1846V30.875H33.4346V33.25H31.0596V28.5ZM21.5596 26.125V28.5H23.9346V23.75H16.8096V26.125H21.5596Z" fill="white"/>
<path d="M16.8096 28.5H19.1846V35.625H28.6846V38H16.8096V28.5ZM38.1846 33.25V38H31.0596V35.625H35.8096V33.25H38.1846Z" fill="white"/>
</g>
<defs>
<clipPath id="clip0_27_888">
<rect width="38" height="38" fill="white" transform="translate(0.184631)"/>
</clipPath>
</defs>
</svg>
