<svg width="49" height="48" viewBox="0 0 49 48" fill="none" xmlns="http://www.w3.org/2000/svg">
<path d="M10.6369 32.9364H37.7212M19.2546 26.1011V32.9364M37.7212 29.5187V36.354M10.6369 29.5187V36.354M10.6369 25.1043C9.24234 24.8467 7.91774 24.333 6.74144 23.5935C5.56514 22.854 4.56102 21.9037 3.78848 20.7989C3.01593 19.6941 2.49064 18.4571 2.24367 17.1612C1.9967 15.8652 2.03306 14.5366 2.3506 13.2539C2.66814 11.9712 3.26042 10.7604 4.09241 9.69322C4.92439 8.626 5.9792 7.72399 7.19444 7.04054C8.40968 6.35709 9.76069 5.90607 11.1676 5.71417C12.5744 5.52226 14.0086 5.59335 15.3853 5.92324C16.38 4.75469 17.6484 3.81038 19.095 3.16152C20.5415 2.51266 22.1283 2.1762 23.7359 2.17749C25.3897 2.17616 27.021 2.53223 28.4998 3.21735C29.9786 3.90247 31.2641 4.89769 32.2539 6.12374C33.6331 5.69079 35.0937 5.52454 36.5452 5.6353C37.9967 5.74607 39.4081 6.13149 40.692 6.76768C41.976 7.40387 43.105 8.27728 44.0093 9.33378C44.9135 10.3903 45.5737 11.6074 45.9488 12.9096C46.3239 14.2118 46.4061 15.5715 46.1901 16.9043C45.9741 18.2371 45.4647 19.5147 44.6933 20.6579C43.922 21.8011 42.9051 22.7855 41.7058 23.5501C40.5065 24.3148 39.1503 24.8433 37.7212 25.1031V43.1893C37.7212 43.7936 37.4618 44.3731 37 44.8004C36.5383 45.2277 35.912 45.4678 35.259 45.4678H13.0991C12.4461 45.4678 11.8198 45.2277 11.3581 44.8004C10.8963 44.3731 10.6369 43.7936 10.6369 43.1893V25.1043Z" stroke="white" stroke-width="4" stroke-linecap="round" stroke-linejoin="round"/>
</svg>
