<svg width="25" height="44" viewBox="0 0 25 44" fill="none" xmlns="http://www.w3.org/2000/svg">
<path d="M14.0025 28.5599V8.99997C14.0025 8.46954 13.7917 7.96084 13.4167 7.58576C13.0416 7.21069 12.5329 6.99998 12.0025 6.99998C11.472 6.99998 10.9633 7.21069 10.5883 7.58576C10.2132 7.96084 10.0025 8.46954 10.0025 8.99997V28.5599C9.39792 28.9089 8.89523 29.4101 8.54437 30.0136C8.19351 30.6171 8.00669 31.3019 8.00247 31.9999C8.00247 33.0608 8.4239 34.0782 9.17404 34.8283C9.92419 35.5785 10.9416 35.9999 12.0025 35.9999C13.0633 35.9999 14.0807 35.5785 14.8309 34.8283C15.581 34.0782 16.0024 33.0608 16.0024 31.9999C15.9982 31.3019 15.8114 30.6171 15.4606 30.0136C15.1097 29.4101 14.607 28.9089 14.0025 28.5599ZM21.0024 23.9999V8.99997C21.0024 6.61303 20.0542 4.32385 18.3664 2.63603C16.6786 0.948209 14.3894 0 12.0025 0C9.61552 0 7.32634 0.948209 5.63852 2.63603C3.9507 4.32385 3.00249 6.61303 3.00249 8.99997V23.9999C1.62018 25.5663 0.67075 27.4665 0.24812 29.5124C-0.17451 31.5583 -0.0556976 33.6791 0.592804 35.665C1.24131 37.6509 2.39703 39.4331 3.94564 40.8353C5.49426 42.2375 7.38212 43.2111 9.42247 43.6599C10.27 43.8531 11.1338 43.9669 12.0025 43.9999C14.3237 44.0107 16.5983 43.348 18.5505 42.0922C20.5027 40.8363 22.0488 39.0412 23.0013 36.9244C23.9539 34.8076 24.2721 32.4599 23.9173 30.1659C23.5625 27.8719 22.55 25.7301 21.0024 23.9999V23.9999ZM17.0024 38.1399C15.949 38.9964 14.695 39.5707 13.3584 39.8087C12.0218 40.0468 10.6466 39.9407 9.36228 39.5006C8.07795 39.0605 6.92676 38.3008 6.01709 37.293C5.10741 36.2852 4.46918 35.0624 4.16248 33.7399C3.85349 32.403 3.89356 31.0091 4.27884 29.6921C4.66412 28.3752 5.38165 27.1795 6.36248 26.2199C6.55145 26.0347 6.70179 25.8138 6.80479 25.5701C6.90778 25.3263 6.96138 25.0645 6.96247 24.7999V8.99997C6.96247 7.6739 7.48926 6.40213 8.42694 5.46445C9.36462 4.52677 10.6364 3.99999 11.9625 3.99999C13.2885 3.99999 14.5603 4.52677 15.498 5.46445C16.4357 6.40213 16.9624 7.6739 16.9624 8.99997V24.8799C16.9635 25.1445 17.0171 25.4063 17.1201 25.6501C17.2231 25.8938 17.3735 26.1147 17.5624 26.2999C18.3799 27.0897 19.0198 28.0446 19.4393 29.101C19.8588 30.1574 20.0484 31.2911 19.9954 32.4265C19.9424 33.5619 19.6481 34.673 19.132 35.6858C18.6159 36.6986 17.8899 37.5897 17.0024 38.2999V38.1399Z" fill="#FFA45B"/>
</svg>
